<svg xmlns="http://www.w3.org/2000/svg" viewBox="0 0 300 283"><path fill="#fff" d="M255.83 39.49c26.86 2.05 36.05 22.32 38.63 46.61 3.6 33.92 2.91 68.44.28 102.4-1.44 18.59-6.17 38.72-25.17 46.59-9.98 4.14-22.97 4.04-33.88 4.53q-89.58 4.02-179.13-.46c-31.72-1.59-46.53-13.58-49.61-45.79q-4.87-51.14-.49-103.88c2.05-24.66 9.56-46.66 38.06-49.64q5.26-.55 10.55-.83 84.92-4.45 171.75-1.14 16.04.62 29.01 1.61ZM121.01 95.13a.3.3 0 0 0-.44.26l-.14 80.91a.3.3 0 0 0 .43.26l78-40.31a.3.3 0 0 0 0-.54l-77.85-40.58Z"/></svg>